<svg xmlns="http://www.w3.org/2000/svg" viewBox="0 0 474 112" width="474" height="112" role="img" aria-label="Futsal Turniri — futsal-turniri.com">
  
  <svg x="0" y="0" width="112" height="112" viewBox="0 0 112 112">
    <rect x="0" y="0" width="112" height="112" rx="28" fill="#0b6b3a"></rect>
    <g stroke="#ffffff" stroke-width="1" opacity="0.35">
      <path d="M42 38 V82 M54 38 V82 M66 38 V82 M78 38 V82"></path>
      <path d="M30 50 H82 M30 62 H82 M30 74 H82"></path>
    </g>
    <path d="M30 82 V38 H82 V82" fill="none" stroke="#ffffff" stroke-width="3.6" stroke-linejoin="round"></path>
    <svg x="39" y="60" width="34" height="34" viewBox="0 0 100 100">
      <circle cx="50" cy="50" r="46" fill="#fff"></circle>
      <g stroke="#0b6b3a" stroke-width="2.3" stroke-linecap="round" fill="none">
        <path d="M50,33 L50,7"></path><path d="M50,33 L50,7" transform="rotate(72 50 50)"></path><path d="M50,33 L50,7" transform="rotate(144 50 50)"></path><path d="M50,33 L50,7" transform="rotate(216 50 50)"></path><path d="M50,33 L50,7" transform="rotate(288 50 50)"></path>
      </g>
      <g fill="#0b6b3a">
        <path d="M50,34 L65.22,45.06 L59.41,62.94 L40.59,62.94 L34.78,45.06 Z"></path>
        <path d="M61.41,85.71 L50,94 L38.59,85.71 L42.95,72.29 L57.05,72.29 Z"></path><path d="M61.41,85.71 L50,94 L38.59,85.71 L42.95,72.29 L57.05,72.29 Z" transform="rotate(72 50 50)"></path><path d="M61.41,85.71 L50,94 L38.59,85.71 L42.95,72.29 L57.05,72.29 Z" transform="rotate(144 50 50)"></path><path d="M61.41,85.71 L50,94 L38.59,85.71 L42.95,72.29 L57.05,72.29 Z" transform="rotate(216 50 50)"></path><path d="M61.41,85.71 L50,94 L38.59,85.71 L42.95,72.29 L57.05,72.29 Z" transform="rotate(288 50 50)"></path>
      </g>
    </svg>
  </svg>
  
  <text x="130" y="55" font-family="&#39;Bricolage Grotesque&#39;, Arial, sans-serif" font-size="38" font-weight="800" letter-spacing="-1.2" fill="#ffffff">Futsal <tspan fill="#3aa56b">Turniri</tspan></text>
  
  <text x="131" y="87" font-family="&#39;JetBrains Mono&#39;, monospace" font-size="13" font-weight="700" letter-spacing="0.6" fill="#3aa56b">futsal-turniri.com</text>
</svg>