<svg xmlns="http://www.w3.org/2000/svg" viewBox="0 0 112 112" width="112" height="112" role="img" aria-label="Futsal Turniri">
  <!-- Canonical raster source for every app icon (favicon, PWA, apple-touch,
       push/OG). Light #EDF0F3 tile + teal line mark, matching the in-app Logo.
       Filename kept as mark-green.svg so index.html + scripts/gen-pwa-icons.mjs
       need no path changes. -->
  <rect x="0" y="0" width="112" height="112" rx="28" fill="#EDF0F3"></rect>
  <g color="#17A79D">
    <g stroke="currentColor" stroke-width="1" opacity="0.6">
      <path d="M42 38 V82 M54 38 V82 M66 38 V82 M78 38 V82"></path>
      <path d="M30 50 H82 M30 62 H82 M30 74 H82"></path>
    </g>
    <path d="M30 82 V38 H82 V82" fill="none" stroke="currentColor" stroke-width="3.6" stroke-linejoin="round"></path>
    <svg x="39" y="60" width="34" height="34" viewBox="0 0 100 100">
      <circle cx="50" cy="50" r="46" fill="#fff" stroke="currentColor" stroke-width="2.6"></circle>
      <g stroke="currentColor" stroke-width="2.3" stroke-linecap="round" fill="none">
        <path d="M50,33 L50,7"></path>
        <path d="M50,33 L50,7" transform="rotate(72 50 50)"></path>
        <path d="M50,33 L50,7" transform="rotate(144 50 50)"></path>
        <path d="M50,33 L50,7" transform="rotate(216 50 50)"></path>
        <path d="M50,33 L50,7" transform="rotate(288 50 50)"></path>
      </g>
      <g fill="currentColor">
        <path d="M50,34 L65.22,45.06 L59.41,62.94 L40.59,62.94 L34.78,45.06 Z"></path>
        <path d="M61.41,85.71 L50,94 L38.59,85.71 L42.95,72.29 L57.05,72.29 Z"></path>
        <path d="M61.41,85.71 L50,94 L38.59,85.71 L42.95,72.29 L57.05,72.29 Z" transform="rotate(72 50 50)"></path>
        <path d="M61.41,85.71 L50,94 L38.59,85.71 L42.95,72.29 L57.05,72.29 Z" transform="rotate(144 50 50)"></path>
        <path d="M61.41,85.71 L50,94 L38.59,85.71 L42.95,72.29 L57.05,72.29 Z" transform="rotate(216 50 50)"></path>
        <path d="M61.41,85.71 L50,94 L38.59,85.71 L42.95,72.29 L57.05,72.29 Z" transform="rotate(288 50 50)"></path>
      </g>
    </svg>
  </g>
</svg>
