<svg xmlns="http://www.w3.org/2000/svg" viewBox="0 0 112 112" width="112" height="112" role="img" aria-label="Futsal Turniri">
  
  <g color="#1B2836">
    <rect x="5" y="5" width="102" height="102" rx="26" fill="none" stroke="currentColor" stroke-width="3"></rect>
    <path d="M30 82 V38 H82 V82" fill="none" stroke="currentColor" stroke-width="3.6" stroke-linejoin="round"></path>
    <svg x="39" y="60" width="34" height="34" viewBox="0 0 100 100">
      <circle cx="50" cy="50" r="46" fill="none" stroke="currentColor" stroke-width="3"></circle>
      <g stroke="currentColor" stroke-width="2.6" stroke-linecap="round" stroke-linejoin="round" fill="none">
        <path d="M50,33 L50,7"></path>
        <path d="M50,33 L50,7" transform="rotate(72 50 50)"></path>
        <path d="M50,33 L50,7" transform="rotate(144 50 50)"></path>
        <path d="M50,33 L50,7" transform="rotate(216 50 50)"></path>
        <path d="M50,33 L50,7" transform="rotate(288 50 50)"></path>
        <path d="M50,34 L65.22,45.06 L59.41,62.94 L40.59,62.94 L34.78,45.06 Z"></path>
        <path d="M61.41,85.71 L50,94 L38.59,85.71 L42.95,72.29 L57.05,72.29 Z"></path>
        <path d="M61.41,85.71 L50,94 L38.59,85.71 L42.95,72.29 L57.05,72.29 Z" transform="rotate(72 50 50)"></path>
        <path d="M61.41,85.71 L50,94 L38.59,85.71 L42.95,72.29 L57.05,72.29 Z" transform="rotate(144 50 50)"></path>
        <path d="M61.41,85.71 L50,94 L38.59,85.71 L42.95,72.29 L57.05,72.29 Z" transform="rotate(216 50 50)"></path>
        <path d="M61.41,85.71 L50,94 L38.59,85.71 L42.95,72.29 L57.05,72.29 Z" transform="rotate(288 50 50)"></path>
      </g>
    </svg>
  </g>
</svg>